Coordinates
version=1
nRows=22
nColumns=24
inDegrees=yes

Units are S.I. units (second, meters, Newtons, ...)
Angles are in degrees.

endheader
time	pelvis_tilt	pelvis_list	pelvis_rotation	pelvis_tx	pelvis_ty	pelvis_tz	hip_flexion_r	hip_adduction_r	hip_rotation_r	knee_angle_r	ankle_angle_r	subtalar_angle_r	mtp_angle_r	hip_flexion_l	hip_adduction_l	hip_rotation_l	knee_angle_l	ankle_angle_l	subtalar_angle_l	mtp_angle_l	lumbar_extension	lumbar_bending	lumbar_rotation
      1.22066667	      0.77107164	      4.59464678	     -4.51345325	      0.17182416	      1.01379667	      0.31051263	     12.10619869	     -7.09094889	     -1.26179992	    -65.57156258	    -10.89516794	     -6.35027687	      6.95942729	      5.28886849	     10.18619123	      6.76371003	    -12.37092538	      6.02865232	    -16.37590584	     -5.94094551	    -13.47008176	      1.57737387	     -0.52469118
      1.22483333	      0.80382674	      4.37138343	     -4.54672104	      0.17681299	      1.01473109	      0.31040210	     12.60464140	     -6.81030134	     -1.29468320	    -65.36939397	     -9.86398094	     -6.53223892	      6.79488089	      4.70072648	      9.96772716	      6.87036077	    -11.91543836	      5.97432471	    -16.46002824	     -5.99403841	    -13.56080928	      1.94814269	     -0.90538217
      1.22900000	      0.80893645	      4.11289970	     -4.57715001	      0.18182931	      1.01564102	      0.31032226	     13.10324464	     -6.47462009	     -1.33264198	    -65.07503922	     -8.90874375	     -6.79040965	      6.63047837	      4.15053350	      9.70145351	      6.91543341	    -11.48488501	      5.97631779	    -16.46556464	     -6.04564128	    -13.60066869	      2.32502235	     -1.11316393
      1.23316667	      0.76678295	      3.86784813	     -4.60876887	      0.18681888	      1.01645177	      0.31029020	     13.64693845	     -6.13320911	     -1.35618352	    -64.72887653	     -7.98147515	     -7.10095842	      6.59585158	      3.67047551	      9.44080423	      6.92789065	    -11.08766273	      5.98945482	    -16.42688182	     -6.06026238	    -13.59859811	      2.63224681	     -1.18107071
      1.23733333	      0.77457195	      3.60950525	     -4.62012282	      0.19181883	      1.01730970	      0.31017587	     14.10832256	     -5.79625586	     -1.41471531	    -64.30442516	     -7.08890091	     -7.31440498	      6.45357168	      3.11485544	      9.17803363	      7.01413061	    -10.64884278	      5.99064184	    -16.43823772	     -6.10711786	    -13.65640041	      3.04291680	     -1.50512555
      1.24150000	      0.78711756	      3.35729749	     -4.62404698	      0.19682101	      1.01816316	      0.31009139	     14.54475777	     -5.45945152	     -1.48293655	    -63.81297845	     -6.22436769	     -7.61044024	      6.28393608	      2.56174484	      8.91728827	      7.07866576	    -10.22258522	      5.97431605	    -16.44049103	     -6.16242226	    -13.71452988	      3.39918661	     -1.73298832
      1.24566667	      0.77210369	      3.11979958	     -4.60199026	      0.20180333	      1.01891009	      0.30995886	     15.00087049	     -5.14549049	     -1.58513001	    -63.28023781	     -5.36632509	     -7.92308599	      5.94946324	      2.05070310	      8.67344255	      7.16574870	     -9.81639051	      5.94579425	    -16.45504625	     -6.26651916	    -13.74332580	      3.76748199	     -2.03882669
      1.24983333	      0.71966816	      2.86226330	     -4.59964208	      0.20679280	      1.01959312	      0.30988472	     15.47815243	     -4.78619816	     -1.64848303	    -62.67621495	     -4.53685923	     -8.19607744	      5.88178398	      1.59898235	      8.39888710	      7.17594182	     -9.45264562	      5.96761811	    -16.41464369	     -6.29027592	    -13.73807962	      4.11150558	     -2.08335958
      1.25400000	      0.71016970	      2.59009502	     -4.57773203	      0.21179058	      1.02031554	      0.30977625	     15.87856643	     -4.42161937	     -1.74297247	    -61.99450039	     -3.75015300	     -8.47979649	      5.78989235	      1.09329869	      8.11281259	      7.21509706	     -9.07545651	      5.98776566	    -16.37195485	     -6.32048369	    -13.78506777	      4.49708828	     -2.24215225
      1.25816667	      0.77128466	      2.34359960	     -4.53045040	      0.21680903	      1.02109457	      0.30964701	     16.17857906	     -4.09938757	     -1.86474966	    -61.24855528	     -3.02332626	     -8.80681838	      5.41005676	      0.48947980	      7.85936389	      7.32323760	     -8.64688058	      5.98183155	    -16.35745442	     -6.43428728	    -13.87890844	      4.86054684	     -2.68008252
      1.26233333	      0.74168725	      2.05974771	     -4.49701862	      0.22183568	      1.02172642	      0.30952962	     16.55768121	     -3.71660743	     -1.95994164	    -60.43703344	     -2.33823424	     -9.05557090	      5.18720125	      0.00348930	      7.55771294	      7.38186236	     -8.26772790	      6.04007345	    -16.31869400	     -6.50023096	    -13.88912146	      5.27782508	     -2.82049312
      1.26650000	      0.73681374	      1.80259363	     -4.44397385	      0.22686050	      1.02233455	      0.30940713	     16.89333352	     -3.36794023	     -2.06875689	    -59.57898610	     -1.64629886	     -9.34004982	      4.94362294	     -0.49833337	      7.28460292	      7.43624463	     -7.90314253	      6.07472922	    -16.27197157	     -6.57155221	    -13.92037975	      5.64521074	     -3.05069753
      1.27066667	      0.71835168	      1.56533785	     -4.37565673	      0.23184933	      1.02286061	      0.30927174	     17.23724033	     -3.04025841	     -2.18166448	    -58.69431696	     -0.89336982	     -9.55865215	      0.15699738	     -0.96832892	      7.03494059	      7.52996027	     -7.56855549	      6.10119042	    -16.30017061	     -7.89196844	    -13.94506049	      5.97836587	     -3.27202415
      1.27483333	      0.72948441	      1.30022211	     -4.31102463	      0.23689407	      1.02340785	      0.30915937	     17.51169190	     -2.68007693	     -2.28530945	    -57.71560676	     -0.25610734	     -9.81981410	      0.13703329	     -1.47543681	      6.74887350	      7.55511438	     -7.22827956	      6.17785261	    -16.18216796	     -7.88701161	    -13.99540486	      6.35419471	     -3.46757357
      1.27900000	      0.70924230	      1.05381091	     -4.23193148	      0.24193001	      1.02385212	      0.30902915	     17.80886243	     -2.34200954	     -2.39429115	    -56.69611015	      0.32543195	    -10.08826802	      0.09849834	     -1.93314661	      6.48203576	      7.60099626	     -6.91655057	      6.24920376	    -16.10550971	     -7.88796910	    -14.00797588	      6.71221214	     -3.68722557
      1.28316667	      0.68098557	      0.80524061	     -4.14212394	      0.24695551	      1.02424954	      0.30889576	     18.09299879	     -1.99981821	     -2.50057415	    -55.61856142	      0.89733539	    -10.32013037	      0.06503716	     -2.36187414	      6.21208037	      7.63497977	     -6.64494936	      6.31190441	    -16.05198142	     -7.89208259	    -14.01492009	      7.05672846	     -3.84584836
      1.28733333	      0.69775194	      0.57586389	     -4.05322472	      0.25201181	      1.02464083	      0.30876755	     18.31511792	     -1.68406800	     -2.60253803	    -54.49742835	      1.37273010	    -10.60242261	     -0.00910037	     -2.86323010	      5.96316147	      7.70119673	     -6.32108152	      6.39863631	    -15.96206966	     -7.90196947	    -14.06134951	      7.40320496	     -4.13532312
      1.29150000	      0.69928651	      0.34140717	     -3.95224369	      0.25706160	      1.02496428	      0.30863113	     18.53243669	     -1.36384656	     -2.70802225	    -53.32409367	      1.83837528	    -10.85003200	     -0.09668244	     -3.32499536	      5.70774075	      7.75648507	     -6.04522870	      6.48574792	    -15.88794226	     -7.91625998	    -14.09364006	      7.74322690	     -4.36766332
      1.29566667	      0.68760809	      0.12290154	     -3.84499784	      0.26211770	      1.02521891	      0.30849846	     18.74927311	     -1.06155652	     -2.80827342	    -52.10811572	      2.26003501	    -11.07993425	     -0.19408746	     -3.76364964	      5.46719387	      7.81443352	     -5.78493650	      6.57615900	    -15.81720306	     -7.93348036	    -14.10829179	      8.06519807	     -4.58977999
      1.29983333	      0.67917693	     -0.07804096	     -3.73599716	      0.26716924	      1.02542011	      0.30837251	     18.94973526	     -0.77829082	     -2.89723341	    -50.85247925	      2.64252439	    -11.30573036	     -0.30895342	     -4.19808308	      5.24548118	      7.87855694	     -5.53702651	      6.66393459	    -15.74878455	     -7.95543015	    -14.12465653	      8.36563722	     -4.82497532
      1.30400000	      0.65380558	     -0.27691186	     -3.61823486	      0.27221860	      1.02554508	      0.30823445	     19.14942980	     -0.50122166	     -2.98785884	    -49.55300172	      3.01923688	    -11.46730699	     -0.38704822	     -4.59140110	      5.02626737	      7.93549212	     -5.33685021	      6.74534298	    -15.70669605	     -7.97071510	    -14.12561385	      8.65958883	     -4.97789833
      1.30816667	      0.64486327	     -0.46160174	     -3.49951945	      0.27728034	      1.02562761	      0.30810761	     19.31771711	     -0.24143329	     -3.07260918	    -48.21491120	      3.32467311	    -11.66342113	     -0.48049610	     -5.01051433	      4.82125822	      8.01193069	     -5.11736310	      6.83730595	    -15.65385549	     -7.98847440	    -14.13526468	      8.94075287	     -5.19227920
